<svg width="56" height="56" viewBox="0 0 56 56" fill="none" xmlns="http://www.w3.org/2000/svg">
<g filter="url(#filter0_d_12802_3)">
<circle cx="27" cy="24" r="19" fill="white"/>
</g>
<g clip-path="url(#clip0_12802_3)">
<path d="M27.1345 15.2813C26.8173 14.964 26.3414 14.8847 25.9448 15.202C25.9448 15.202 25.8655 15.202 25.8655 15.2813C25.2309 16.0745 19.3615 23.213 19.3615 26.8615C19.3615 30.8274 22.5342 34 26.5 34C30.4658 34 33.6385 30.8274 33.6385 26.8615C33.6385 23.213 27.7691 16.0745 27.1345 15.2813Z" fill="url(#paint0_linear_12802_3)"/>
<path d="M24.7051 28.9841L29.4723 24.2169L28.3506 23.0952L23.5834 27.8624L24.7051 28.9841Z" fill="white"/>
<path d="M24.1205 25.2752C24.5585 25.2752 24.9136 24.92 24.9136 24.482C24.9136 24.0439 24.5585 23.6888 24.1205 23.6888C23.6824 23.6888 23.3273 24.0439 23.3273 24.482C23.3273 24.92 23.6824 25.2752 24.1205 25.2752Z" fill="white"/>
<path d="M28.8795 28.4478C29.3175 28.4478 29.6726 28.0927 29.6726 27.6547C29.6726 27.2166 29.3175 26.8615 28.8795 26.8615C28.4414 26.8615 28.0863 27.2166 28.0863 27.6547C28.0863 28.0927 28.4414 28.4478 28.8795 28.4478Z" fill="white"/>
</g>
<defs>
<filter id="filter0_d_12802_3" x="0" y="0" width="56" height="56" filterUnits="userSpaceOnUse" color-interpolation-filters="sRGB">
<feFlood flood-opacity="0" result="BackgroundImageFix"/>
<feColorMatrix in="SourceAlpha" type="matrix" values="0 0 0 0 0 0 0 0 0 0 0 0 0 0 0 0 0 0 127 0" result="hardAlpha"/>
<feMorphology radius="1" operator="erode" in="SourceAlpha" result="effect1_dropShadow_12802_3"/>
<feOffset dx="1" dy="4"/>
<feGaussianBlur stdDeviation="5"/>
<feComposite in2="hardAlpha" operator="out"/>
<feColorMatrix type="matrix" values="0 0 0 0 0.278431 0 0 0 0 0.576471 0 0 0 0 1 0 0 0 0.2 0"/>
<feBlend mode="normal" in2="BackgroundImageFix" result="effect1_dropShadow_12802_3"/>
<feBlend mode="normal" in="SourceGraphic" in2="effect1_dropShadow_12802_3" result="shape"/>
</filter>
<linearGradient id="paint0_linear_12802_3" x1="20.9081" y1="31.383" x2="32.0729" y2="20.2222" gradientUnits="userSpaceOnUse">
<stop stop-color="#34CDFA"/>
<stop offset="1" stop-color="#E8D9F1"/>
</linearGradient>
<clipPath id="clip0_12802_3">
<rect width="19" height="19" fill="white" transform="translate(17 15)"/>
</clipPath>
</defs>
</svg>
