<svg width="56" height="56" viewBox="0 0 56 56" fill="none" xmlns="http://www.w3.org/2000/svg">
<g opacity="0.88" filter="url(#filter0_d_12802_4)">
<circle cx="27" cy="24" r="19" fill="white"/>
</g>
<g opacity="0.88">
<path d="M33.4728 27.2818C33.0438 27.2816 32.6216 27.1734 32.2454 26.9672C31.8691 26.7609 31.5508 26.4633 31.3199 26.1016C31.0891 26.4634 30.7709 26.7611 30.3946 26.9674C30.0184 27.1737 29.5962 27.2818 29.1671 27.2818C28.738 27.2818 28.3158 27.1737 27.9395 26.9674C27.5632 26.7611 27.245 26.4634 27.0142 26.1016C26.7835 26.4634 26.4652 26.7611 26.089 26.9674C25.7127 27.1737 25.2905 27.2818 24.8614 27.2818C24.4323 27.2818 24.0101 27.1737 23.6339 26.9674C23.2576 26.7611 22.9394 26.4634 22.7086 26.1016C22.4112 26.5675 21.9708 26.9245 21.4534 27.1188C20.936 27.3132 20.3695 27.3344 19.839 27.1795C19.3084 27.0245 18.8425 26.7017 18.511 26.2594C18.1795 25.8171 18.0005 25.2793 18.0006 24.7265C18.0006 24.6199 18.043 24.5175 18.1185 24.4421C18.1939 24.3667 18.2962 24.3243 18.4029 24.3243C18.5096 24.3243 18.6119 24.3667 18.6874 24.4421C18.7628 24.5175 18.8052 24.6199 18.8052 24.7265C18.8025 24.9581 18.8459 25.1879 18.9326 25.4026C19.0194 25.6174 19.1479 25.8127 19.3108 25.9774C19.4736 26.1421 19.6675 26.2729 19.8812 26.3621C20.0949 26.4513 20.3242 26.4973 20.5557 26.4973C20.7873 26.4973 21.0166 26.4513 21.2303 26.3621C21.444 26.2729 21.6379 26.1421 21.8007 25.9774C21.9636 25.8127 22.0921 25.6174 22.1789 25.4026C22.2656 25.1879 22.309 24.9581 22.3063 24.7265C22.3063 24.6199 22.3487 24.5175 22.4241 24.4421C22.4996 24.3667 22.6019 24.3243 22.7086 24.3243C22.8153 24.3243 22.9176 24.3667 22.993 24.4421C23.0685 24.5175 23.1108 24.6199 23.1108 24.7265C23.1082 24.9581 23.1515 25.1879 23.2383 25.4026C23.3251 25.6174 23.4536 25.8127 23.6164 25.9774C23.7792 26.1421 23.9731 26.2729 24.1868 26.3621C24.4005 26.4513 24.6298 26.4973 24.8614 26.4973C25.093 26.4973 25.3223 26.4513 25.536 26.3621C25.7497 26.2729 25.9436 26.1421 26.1064 25.9774C26.2692 25.8127 26.3977 25.6174 26.4845 25.4026C26.5713 25.1879 26.6146 24.9581 26.612 24.7265C26.612 24.6199 26.6544 24.5175 26.7298 24.4421C26.8052 24.3667 26.9075 24.3243 27.0142 24.3243C27.1209 24.3243 27.2232 24.3667 27.2987 24.4421C27.3741 24.5175 27.4165 24.6199 27.4165 24.7265C27.4139 24.9581 27.4572 25.1879 27.544 25.4026C27.6307 25.6174 27.7593 25.8127 27.9221 25.9774C28.0849 26.1421 28.2788 26.2729 28.4925 26.3621C28.7062 26.4513 28.9355 26.4973 29.1671 26.4973C29.3987 26.4973 29.6279 26.4513 29.8417 26.3621C30.0554 26.2729 30.2492 26.1421 30.4121 25.9774C30.5749 25.8127 30.7034 25.6174 30.7902 25.4026C30.877 25.1879 30.9203 24.9581 30.9176 24.7265C30.9176 24.6199 30.96 24.5175 31.0355 24.4421C31.1109 24.3667 31.2132 24.3243 31.3199 24.3243C31.4266 24.3243 31.5289 24.3667 31.6043 24.4421C31.6798 24.5175 31.7222 24.6199 31.7222 24.7265C31.7195 24.9581 31.7628 25.1879 31.8496 25.4026C31.9364 25.6174 32.0649 25.8127 32.2277 25.9774C32.3906 26.1421 32.5844 26.2729 32.7981 26.3621C33.0119 26.4513 33.2411 26.4973 33.4727 26.4973C33.7043 26.4973 33.9336 26.4513 34.1473 26.3621C34.361 26.2729 34.5549 26.1421 34.7177 25.9774C34.8805 25.8127 35.0091 25.6174 35.0958 25.4026C35.1826 25.1879 35.2259 24.9581 35.2233 24.7265C35.2233 24.6199 35.2657 24.5175 35.3411 24.4421C35.4166 24.3667 35.5189 24.3243 35.6256 24.3243C35.7322 24.3243 35.8346 24.3667 35.91 24.4421C35.9854 24.5175 36.0278 24.6199 36.0278 24.7265C36.0271 25.404 35.7577 26.0534 35.2787 26.5325C34.7997 27.0115 34.1503 27.281 33.4728 27.2818V27.2818Z" fill="#AFD1FD"/>
<path d="M33.4729 32.0276C33.0438 32.0275 32.6216 31.9192 32.2454 31.7129C31.8691 31.5067 31.5508 31.2089 31.3199 30.8473C31.0892 31.2091 30.771 31.5069 30.3947 31.7132C30.0184 31.9195 29.5962 32.0277 29.1671 32.0277C28.738 32.0277 28.3158 31.9195 27.9395 31.7132C27.5632 31.5069 27.245 31.2091 27.0143 30.8473C26.7835 31.2091 26.4653 31.5069 26.0891 31.7132C25.7128 31.9195 25.2906 32.0277 24.8614 32.0277C24.4323 32.0277 24.0101 31.9195 23.6338 31.7132C23.2576 31.5069 22.9394 31.2091 22.7086 30.8473C22.4115 31.3134 21.9711 31.6706 21.4536 31.8652C20.9362 32.0598 20.3696 32.0812 19.8389 31.9264C19.3082 31.7715 18.8421 31.4486 18.5105 31.0063C18.1789 30.5639 17.9998 30.0259 18 29.4731C18 29.3664 18.0424 29.2641 18.1178 29.1887C18.1933 29.1132 18.2956 29.0708 18.4023 29.0708C18.509 29.0708 18.6113 29.1132 18.6867 29.1887C18.7622 29.2641 18.8045 29.3664 18.8045 29.4731C18.8019 29.7047 18.8452 29.9345 18.932 30.1492C19.0188 30.3639 19.1473 30.5593 19.3101 30.724C19.4729 30.8887 19.6668 31.0194 19.8805 31.1086C20.0942 31.1979 20.3235 31.2438 20.5551 31.2438C20.7867 31.2438 21.016 31.1979 21.2297 31.1086C21.4434 31.0194 21.6373 30.8887 21.8001 30.724C21.9629 30.5593 22.0914 30.3639 22.1782 30.1492C22.265 29.9345 22.3083 29.7047 22.3057 29.4731C22.3057 29.3664 22.348 29.2641 22.4235 29.1887C22.4989 29.1132 22.6012 29.0708 22.7079 29.0708C22.8146 29.0708 22.9169 29.1132 22.9924 29.1887C23.0678 29.2641 23.1102 29.3664 23.1102 29.4731C23.1075 29.7047 23.1509 29.9345 23.2376 30.1492C23.3244 30.3639 23.453 30.5593 23.6158 30.724C23.7786 30.8887 23.9725 31.0194 24.1862 31.1086C24.3999 31.1979 24.6292 31.2438 24.8608 31.2438C25.0923 31.2438 25.3216 31.1979 25.5353 31.1086C25.7491 31.0194 25.9429 30.8887 26.1057 30.724C26.2686 30.5593 26.3971 30.3639 26.4839 30.1492C26.5707 29.9345 26.614 29.7047 26.6113 29.4731C26.6113 29.3664 26.6537 29.2641 26.7291 29.1887C26.8046 29.1132 26.9069 29.0708 27.0136 29.0708C27.1203 29.0708 27.2226 29.1132 27.298 29.1887C27.3735 29.2641 27.4159 29.3664 27.4159 29.4731C27.4132 29.7047 27.4565 29.9345 27.5433 30.1492C27.6301 30.3639 27.7586 30.5593 27.9214 30.724C28.0843 30.8887 28.2781 31.0194 28.4918 31.1086C28.7055 31.1979 28.9348 31.2438 29.1664 31.2438C29.398 31.2438 29.6273 31.1979 29.841 31.1086C30.0547 31.0194 30.2486 30.8887 30.4114 30.724C30.5742 30.5593 30.7027 30.3639 30.7895 30.1492C30.8763 29.9345 30.9196 29.7047 30.917 29.4731C30.917 29.3664 30.9594 29.2641 31.0348 29.1887C31.1102 29.1132 31.2126 29.0708 31.3193 29.0708C31.4259 29.0708 31.5283 29.1132 31.6037 29.1887C31.6791 29.2641 31.7215 29.3664 31.7215 29.4731C31.7189 29.7047 31.7622 29.9345 31.849 30.1492C31.9358 30.3639 32.0643 30.5593 32.2271 30.724C32.3899 30.8887 32.5838 31.0194 32.7975 31.1086C33.0112 31.1979 33.2405 31.2438 33.4721 31.2438C33.7037 31.2438 33.933 31.1979 34.1467 31.1086C34.3604 31.0194 34.5542 30.8887 34.7171 30.724C34.8799 30.5593 35.0084 30.3639 35.0952 30.1492C35.182 29.9345 35.2253 29.7047 35.2226 29.4731C35.2226 29.3664 35.265 29.2641 35.3405 29.1887C35.4159 29.1132 35.5182 29.0708 35.6249 29.0708C35.7316 29.0708 35.8339 29.1132 35.9094 29.1887C35.9848 29.2641 36.0272 29.3664 36.0272 29.4731C36.0263 30.1503 35.7569 30.7995 35.2781 31.2783C34.7992 31.7572 34.1501 32.0267 33.4729 32.0276Z" fill="#9AA1EB"/>
<path d="M28.8167 15.6364L27.2979 14.1179C27.2606 14.0805 27.2163 14.0509 27.1675 14.0306C27.1187 14.0104 27.0664 14 27.0136 14C26.9608 14 26.9085 14.0104 26.8597 14.0306C26.8109 14.0509 26.7665 14.0805 26.7292 14.1179L25.2105 15.6364C25.135 15.7119 25.0927 15.8142 25.0927 15.9209C25.0927 16.0276 25.135 16.1299 25.2105 16.2053C25.2859 16.2808 25.3883 16.3232 25.4949 16.3232C25.6016 16.3232 25.704 16.2808 25.7794 16.2053L26.6113 15.3735V19.3833C26.6113 19.49 26.6537 19.5923 26.7291 19.6677C26.8046 19.7432 26.9069 19.7855 27.0136 19.7855C27.1203 19.7855 27.2226 19.7432 27.298 19.6677C27.3735 19.5923 27.4158 19.49 27.4158 19.3833V15.3735L28.2477 16.2053C28.2851 16.2427 28.3294 16.2723 28.3782 16.2926C28.4271 16.3128 28.4794 16.3232 28.5322 16.3232C28.585 16.3232 28.6373 16.3128 28.6861 16.2926C28.735 16.2723 28.7793 16.2427 28.8167 16.2053C28.854 16.168 28.8836 16.1236 28.9039 16.0748C28.9241 16.026 28.9345 15.9737 28.9345 15.9209C28.9345 15.8681 28.9241 15.8157 28.9039 15.7669C28.8836 15.7181 28.854 15.6738 28.8167 15.6364V15.6364Z" fill="#BFFDFF"/>
<path d="M20.9128 16.8685C20.8755 16.8311 20.8312 16.8015 20.7823 16.7812C20.7335 16.761 20.6812 16.7506 20.6284 16.7506C20.5755 16.7506 20.5232 16.761 20.4744 16.7812C20.4256 16.8015 20.3813 16.8311 20.3439 16.8685L18.8254 18.387C18.75 18.4625 18.7076 18.5648 18.7076 18.6715C18.7076 18.7782 18.75 18.8805 18.8254 18.9559C18.9009 19.0314 19.0032 19.0738 19.1099 19.0738C19.2166 19.0738 19.3189 19.0314 19.3943 18.9559L20.2262 18.1241V22.1339C20.2262 22.2406 20.2686 22.3429 20.344 22.4183C20.4195 22.4938 20.5218 22.5361 20.6285 22.5361C20.7352 22.5361 20.8375 22.4938 20.9129 22.4183C20.9884 22.3429 21.0308 22.2406 21.0308 22.1339V18.1241L21.8627 18.9559C21.9385 19.0292 22.0402 19.0697 22.1456 19.0688C22.2511 19.0679 22.352 19.0255 22.4266 18.9509C22.5011 18.8763 22.5434 18.7754 22.5443 18.67C22.5452 18.5645 22.5046 18.4629 22.4314 18.387L20.9128 16.8685Z" fill="#BFFDFF"/>
<path d="M35.2017 18.387L33.6831 16.8685C33.6458 16.8311 33.6015 16.8015 33.5527 16.7812C33.5038 16.761 33.4515 16.7506 33.3987 16.7506C33.3458 16.7506 33.2935 16.761 33.2447 16.7812C33.1959 16.8015 33.1516 16.8311 33.1142 16.8685L31.5957 18.387C31.5573 18.4241 31.5266 18.4685 31.5055 18.5176C31.4844 18.5667 31.4733 18.6194 31.4729 18.6728C31.4724 18.7263 31.4826 18.7792 31.5028 18.8287C31.523 18.8781 31.5528 18.923 31.5906 18.9608C31.6284 18.9986 31.6733 19.0285 31.7227 19.0487C31.7722 19.0689 31.8251 19.0791 31.8785 19.0787C31.9319 19.0782 31.9847 19.0671 32.0338 19.0461C32.0829 19.025 32.1273 18.9944 32.1644 18.9559L32.9963 18.1241V22.1339C32.9963 22.2406 33.0387 22.3429 33.1141 22.4183C33.1896 22.4938 33.2919 22.5361 33.3986 22.5361C33.5053 22.5361 33.6076 22.4938 33.683 22.4183C33.7585 22.3429 33.8008 22.2406 33.8008 22.1339V18.1241L34.6327 18.9559C34.7082 19.0314 34.8105 19.0738 34.9172 19.0738C35.0239 19.0738 35.1262 19.0314 35.2017 18.9559C35.2771 18.8805 35.3195 18.7782 35.3195 18.6715C35.3195 18.5648 35.2771 18.4625 35.2017 18.387V18.387Z" fill="#BFFDFF"/>
<path d="M24.8443 20.2554C24.7915 20.2554 24.7391 20.2658 24.6903 20.286C24.6415 20.3062 24.5971 20.3358 24.5598 20.3732C24.5224 20.4105 24.4928 20.4549 24.4726 20.5037C24.4524 20.5525 24.442 20.6048 24.442 20.6577V24.0482C24.442 24.1549 24.4844 24.2572 24.5598 24.3327C24.6353 24.4081 24.7376 24.4505 24.8443 24.4505C24.951 24.4505 25.0533 24.4081 25.1287 24.3327C25.2042 24.2572 25.2466 24.1549 25.2466 24.0482V20.6579C25.2466 20.6051 25.2362 20.5527 25.216 20.5039C25.1958 20.4551 25.1662 20.4107 25.1288 20.3733C25.0915 20.3359 25.0471 20.3063 24.9983 20.286C24.9495 20.2658 24.8971 20.2554 24.8443 20.2554V20.2554Z" fill="#BFFDFF"/>
<path d="M29.183 20.2554C29.1302 20.2554 29.0779 20.2658 29.0291 20.286C28.9802 20.3062 28.9359 20.3358 28.8985 20.3732C28.8612 20.4105 28.8315 20.4549 28.8113 20.5037C28.7911 20.5525 28.7807 20.6048 28.7808 20.6577V24.0482C28.7808 24.1549 28.8232 24.2572 28.8986 24.3327C28.974 24.4081 29.0764 24.4505 29.183 24.4505C29.2897 24.4505 29.3921 24.4081 29.4675 24.3327C29.5429 24.2572 29.5853 24.1549 29.5853 24.0482V20.6579C29.5853 20.6051 29.575 20.5527 29.5548 20.5039C29.5346 20.4551 29.5049 20.4107 29.4676 20.3733C29.4302 20.3359 29.3859 20.3063 29.337 20.286C29.2882 20.2658 29.2359 20.2554 29.183 20.2554V20.2554Z" fill="#BFFDFF"/>
</g>
<defs>
<filter id="filter0_d_12802_4" x="0" y="0" width="56" height="56" filterUnits="userSpaceOnUse" color-interpolation-filters="sRGB">
<feFlood flood-opacity="0" result="BackgroundImageFix"/>
<feColorMatrix in="SourceAlpha" type="matrix" values="0 0 0 0 0 0 0 0 0 0 0 0 0 0 0 0 0 0 127 0" result="hardAlpha"/>
<feMorphology radius="1" operator="erode" in="SourceAlpha" result="effect1_dropShadow_12802_4"/>
<feOffset dx="1" dy="4"/>
<feGaussianBlur stdDeviation="5"/>
<feComposite in2="hardAlpha" operator="out"/>
<feColorMatrix type="matrix" values="0 0 0 0 0.278431 0 0 0 0 0.576471 0 0 0 0 1 0 0 0 0.2 0"/>
<feBlend mode="normal" in2="BackgroundImageFix" result="effect1_dropShadow_12802_4"/>
<feBlend mode="normal" in="SourceGraphic" in2="effect1_dropShadow_12802_4" result="shape"/>
</filter>
</defs>
</svg>
