<svg width="56" height="56" viewBox="0 0 56 56" fill="none" xmlns="http://www.w3.org/2000/svg">
<g filter="url(#filter0_d_12802_5)">
<circle cx="27" cy="24" r="19" fill="white"/>
</g>
<path d="M33.087 17.6087C30.9291 17.6087 29.1739 19.3644 29.1739 21.5217C29.1739 21.7617 29.3683 21.9565 29.6087 21.9565C29.8491 21.9565 30.0435 21.7617 30.0435 21.5217C30.0435 19.8435 31.4091 18.4783 33.087 18.4783C34.7648 18.4783 36.1304 19.8435 36.1304 21.5217C36.1304 23.2 34.7648 24.5652 33.087 24.5652H17.4348C17.1948 24.5652 17 24.76 17 25C17 25.24 17.1948 25.4348 17.4348 25.4348H33.087C35.2448 25.4348 37 23.6791 37 21.5217C37 19.3644 35.2448 17.6087 33.087 17.6087Z" fill="#007AFF"/>
<path d="M17.4348 22.8261H24.8261C26.5043 22.8261 27.8696 21.4609 27.8696 19.7826C27.8696 18.1044 26.5043 16.7391 24.8261 16.7391C23.1478 16.7391 21.7826 18.1044 21.7826 19.7826C21.7826 20.0226 21.9774 20.2174 22.2174 20.2174C22.4574 20.2174 22.6522 20.0226 22.6522 19.7826C22.6522 18.5839 23.6274 17.6087 24.8261 17.6087C26.0248 17.6087 27 18.5839 27 19.7826C27 20.9813 26.0248 21.9565 24.8261 21.9565H17.4348C17.1948 21.9565 17 22.1513 17 22.3913C17 22.6313 17.1948 22.8261 17.4348 22.8261Z" fill="#007AFF"/>
<path d="M32.2174 32.3913C31.0187 32.3913 30.0435 31.4161 30.0435 30.2174C30.0435 29.9774 29.8491 29.7826 29.6087 29.7826C29.3683 29.7826 29.1739 29.9774 29.1739 30.2174C29.1739 31.8957 30.5396 33.2609 32.2174 33.2609C33.8952 33.2609 35.2609 31.8957 35.2609 30.2174C35.2609 28.5391 33.8952 27.1739 32.2174 27.1739H17.4348C17.1948 27.1739 17 27.3687 17 27.6087C17 27.8487 17.1948 28.0435 17.4348 28.0435H32.2174C33.4161 28.0435 34.3913 29.0187 34.3913 30.2174C34.3913 31.4161 33.4161 32.3913 32.2174 32.3913Z" fill="#007AFF"/>
<defs>
<filter id="filter0_d_12802_5" x="0" y="0" width="56" height="56" filterUnits="userSpaceOnUse" color-interpolation-filters="sRGB">
<feFlood flood-opacity="0" result="BackgroundImageFix"/>
<feColorMatrix in="SourceAlpha" type="matrix" values="0 0 0 0 0 0 0 0 0 0 0 0 0 0 0 0 0 0 127 0" result="hardAlpha"/>
<feMorphology radius="1" operator="erode" in="SourceAlpha" result="effect1_dropShadow_12802_5"/>
<feOffset dx="1" dy="4"/>
<feGaussianBlur stdDeviation="5"/>
<feComposite in2="hardAlpha" operator="out"/>
<feColorMatrix type="matrix" values="0 0 0 0 0.278431 0 0 0 0 0.576471 0 0 0 0 1 0 0 0 0.2 0"/>
<feBlend mode="normal" in2="BackgroundImageFix" result="effect1_dropShadow_12802_5"/>
<feBlend mode="normal" in="SourceGraphic" in2="effect1_dropShadow_12802_5" result="shape"/>
</filter>
</defs>
</svg>
